<?xml version="1.0" encoding="UTF-8"?>
<!DOCTYPE svg PUBLIC "-//W3C//DTD SVG 1.1//EN" "http://www.w3.org/Graphics/SVG/1.1/DTD/svg11.dtd">
<!-- Creator: CorelDRAW -->
<svg xmlns="http://www.w3.org/2000/svg" xml:space="preserve" width="2048px" height="2048px" style="shape-rendering:geometricPrecision; text-rendering:geometricPrecision; image-rendering:optimizeQuality; fill-rule:evenodd; clip-rule:evenodd"
viewBox="0 0 2048 2048"
 xmlns:xlink="http://www.w3.org/1999/xlink">
 <defs>
  <style type="text/css">
   <![CDATA[
    .fil20 {fill:none}
    .fil0 {fill:#202020}
    .fil6 {fill:#2D2D2D}
    .fil9 {fill:#373737}
    .fil14 {fill:#4C4C4C}
    .fil8 {fill:#525252}
    .fil1 {fill:#565656}
    .fil3 {fill:#717171}
    .fil5 {fill:gray}
    .fil10 {fill:#9B9B9C}
    .fil7 {fill:#A1A1A1}
    .fil13 {fill:#C4C4C4}
    .fil4 {fill:#C5C5C5}
    .fil11 {fill:#CACBCB}
    .fil2 {fill:#D6D6D6}
    .fil15 {fill:#DDDDDE}
    .fil12 {fill:#F0F0F0}
    .fil16 {fill:#414141;fill-rule:nonzero}
    .fil18 {fill:#5F5F5F;fill-rule:nonzero}
    .fil17 {fill:#6A6A6A;fill-rule:nonzero}
    .fil19 {fill:#7E7E7E;fill-rule:nonzero}
   ]]>
  </style>
 </defs>
 <g id="Layer_x0020_1">
  <metadata id="CorelCorpID_0Corel-Layer"/>
  <g id="_310033936">
   <path id="_310007368" class="fil0" d="M557.898 1554.92c-3.45118,0 -13.7362,92.4839 -14.4602,99.2457 -2.99055,27.952 -1.28504,44.7343 20.9173,58.5201 15.1075,9.38741 35.5559,9.20079 54.4217,-4.54134 11.7165,-8.53465 19.6819,-20.4071 18.6331,-44.4874 -1.56378,-35.4827 -7.96536,-65.8394 -11.8217,-104.373l-67.6902 -4.36418z"/>
   <path id="_310007104" class="fil0" d="M434.535 1554.92c3.45118,0 13.7362,92.4839 14.4602,99.2457 2.99055,27.952 1.28504,44.7343 -20.9173,58.5201 -15.1075,9.38741 -35.5559,9.20079 -54.4217,-4.54134 -11.7165,-8.53465 -19.6819,-20.4071 -18.6331,-44.4874 1.56378,-35.4827 7.96536,-65.8394 11.8217,-104.373l67.6902 -4.36418z"/>
   <path id="_310006936" class="fil1" d="M462.418 1603.92l-120.006 8.10946 19.4339 -543.687 12.2457 -108.628c11.8335,-18.1051 135.289,10.4469 135.289,10.4469l-46.963 633.759z"/>
   <path id="_310007080" class="fil1" d="M529.132 1603.92l120.006 8.10946 -19.4339 -543.687 -12.2469 -108.628c-11.8323,-18.1051 -135.8,10.4469 -135.8,10.4469l47.4744 633.759z"/>
   <path id="_310007320" class="fil2" d="M269.955 910.068c7.57087,-24.528 17.3032,-119.601 24.5941,-160.181l70.7386 12.7099c-2.9563,16.402 -28.0158,93.0497 -34.2721,151.06 -1.23543,11.4437 -2.26772,27.4488 -1.84252,29.3185l-59.2182 -32.9067z"/>
   <path id="_310007056" class="fil3" d="M359.959 607.262c-26.0008,7.20591 -44.0091,24.5681 -50.2937,59.6327 -11.9551,66.6839 -16.2579,84.5268 -16.2579,84.5268l72.1997 13.8059 27.0059 -64.9654c17.2843,-41.5772 -0.583465,-101.888 -32.654,-93.0001z"/>
   <path id="_310006888" class="fil2" d="M257.421 1079.17c-2.16142,4.75512 -4.9193,68.9575 17.2583,88.9512 18.1028,28.9713 26.804,29.8559 26.2748,22.0949 -0.530315,-7.76339 2.88898,1.88977 6.04961,-2.12126 1.82953,-2.31851 0.237402,-7.1752 -0.93189,-9.4004 -1.59331,-3.03307 3.13819,-0.105118 4.87914,-1.83662 1.74095,-1.7374 1.97008,-6.22087 0.205512,-12.15 -1.54725,-5.20748 -0.424016,-4.77166 0.904725,-3.73819 1.62874,1.25433 5.07756,-0.849213 2.92087,-11.413 -3.10866,-15.2303 -11.2347,-22.6453 -12.013,-33.1736 -2.19331,-29.6977 -14.087,-40.4292 -23.9669,-51.5445 -9.87639,-11.113 -21.5811,14.3315 -21.5811,14.3315z"/>
   <path id="_310006984" class="fil2" d="M328.716 946.365c-9.22087,68.7579 -24.7429,46.6926 -33.8622,135.443 -1.01339,9.86457 -6.14056,15.5268 -8.05158,16.389 -12.8457,5.79095 -29.1579,-13.0417 -29.1579,-13.0417 -0.26811,-2.3504 -0.517323,-4.76457 -0.729922,-7.23898 -0.816142,-58.2556 3.98268,-100.016 10.5449,-154.578 9.83505,-81.7831 71.3304,-15.6118 61.2567,23.0268z"/>
   <path id="_310007176" class="fil2" d="M714.675 909.184c-7.56969,-24.528 -15.2539,-120.738 -22.5461,-161.319l-70.7375 12.7099c2.95512,16.4032 28.0158,93.0497 34.2721,151.06 1.23425,11.4437 2.26654,27.4488 1.84134,29.3185l57.1701 -31.7693z"/>
   <path id="_310006192" class="fil3" d="M626.719 605.24c26.0008,7.20591 44.0091,24.5681 50.2937,59.6327 11.9551,66.6839 16.2579,84.5268 16.2579,84.5268l-72.1997 13.8071 -27.0059 -64.9666c-17.2831,-41.576 0.583465,-101.888 32.654,-93.0001z"/>
   <path id="_310006168" class="fil4" d="M493.981 653.781c53.1437,0 28.7233,9.57875 55.441,-25.2177 -36.4607,-5.60315 -12.039,-22.8095 -18.8032,-44.2382 -6.88938,-21.8067 0,-50.4957 0,-50.4957l-73.2733 -0.0011811c0,0 6.88583,28.6902 0,50.4969 -6.76418,21.4288 -8.95631,38.6363 -45.4205,44.2382 26.7177,34.7953 28.9146,25.2177 82.056,25.2177z"/>
   <path id="_310006408" class="fil5" d="M380.327 601.77c30.1299,-6.43583 57.3804,-1.67953 76.6418,-12.8032 2.57008,-1.48465 20.3563,32.2264 36.6862,32.2264 15.45,0 27.6591,-33.1559 44.1378,-31.2484 21.1264,2.44488 44.2973,6.45709 72.5611,11.8252 4.65945,0.883465 10.5839,4.30512 8.62442,8.62323 -19.8012,43.6158 0,84.3426 0,130.847l0 219.784c0,4.74213 -3.88111,8.62323 -8.62442,8.62323l-230.027 0c-4.74331,0 -8.62323,-3.87992 -8.62323,-8.62323l0 -219.448c0,-38.7792 25.9382,-73.8851 0,-131.184 -1.95709,-4.32166 3.98504,-7.63229 8.62323,-8.62323z"/>
   <path id="_310006144" class="fil4" d="M427.754 449.064c0,0 -27.2445,-22.0701 -39.228,0 -11.987,22.0677 33.7866,61.3973 47.9552,54.6851 14.165,-6.71103 -8.72717,-54.6851 -8.72717,-54.6851z"/>
   <path id="_310006072" class="fil4" d="M560.206 449.064c0,0 27.2469,-22.0701 39.2339,0 11.9858,22.0677 -33.7878,61.3973 -47.9575,54.6851 -14.1626,-6.71103 8.72363,-54.6851 8.72363,-54.6851z"/>
   <path id="_310006336" class="fil2" d="M574.485 399.572c-2.21103,-61.7044 -68.0103,-61.7599 -80.5016,-61.7599 -12.4949,0 -78.2942,0.0555119 -80.5099,61.7599 -2.21339,61.7067 1.10906,106.492 15.4949,126.39 14.2311,19.702 48.2244,30.1382 65.015,30.1382 16.7858,0 50.7768,-10.4362 65.015,-30.1382 14.3752,-19.898 17.7036,-64.6831 15.4866,-126.39z"/>
   <path id="_310006000" class="fil3" d="M458.621 579.508c0,0 11.5736,33.4122 35.3622,41.4485 0,0 -24.5055,9.17835 -35.3622,34.4268 0,0 -30.6355,-49.4516 -28.2059,-58.5804 2.43071,-9.12875 14.961,-16.2791 28.2059,-17.2949z"/>
   <path id="_310006384" class="fil3" d="M529.34 579.508c0,0 -11.5724,33.4122 -35.3563,41.4485 0,0 24.5032,9.17835 35.3563,34.4268 0,0 30.6366,-49.4516 28.2083,-58.5804 -2.43189,-9.12875 -14.9587,-16.2791 -28.2083,-17.2949z"/>
   <path id="_310006216" class="fil0" d="M427.507 474.626c0,0 -6.23504,-46.7622 7.27442,-61.0512 0,0 56.6351,34.813 87.0308,-4.41615 0,0 1.8189,-19.0949 13.1197,-19.8744 0,0 15.8457,6.36497 24.1595,47.1544l-0.259843 38.7095 14.9268 -28.8378c0,0 22.2248,-57.4146 -8.4319,-78.9792 0,0 1.56024,-42.6071 -85.2119,-38.1898 0,0 -54.0378,-3.11693 -70.1457,57.6745 -7.07599,27.0402 -2.13307,47.3788 2.33504,58.5083l0.0141732 0.336614 0.605906 1.15512c2.25945,5.27717 4.24016,8.08938 4.24725,8.09883l10.3358 19.7114zm-10.3358 -19.7103l0 -0.0011811"/>
   <rect id="_310006504" class="fil6" x="370.02" y="958.675" width="251.509" height="24.1299"/>
   <rect id="_310038376" class="fil7" x="478.491" y="957.225" width="34.5662" height="27.0307"/>
   <path id="_310038232" class="fil2" d="M746.564 1072.14c2.72953,4.45276 13.3665,67.8272 -6.18308,90.3981 -14.3988,30.9792 -22.9264,32.9268 -23.3551,25.1599 -0.429922,-7.7693 -2.63386,2.2311 -6.26457,-1.36063 -2.10236,-2.07638 -1.1185,-7.09134 -0.232677,-9.44292 1.20827,-3.2067 -3.12638,0.281103 -5.06811,-1.22244 -1.94173,-1.51063 -2.72008,-5.9315 -1.69843,-12.0331 0.895276,-5.35748 -0.166536,-4.78819 -1.35709,-3.59882 -1.46221,1.44567 -5.1437,-0.217323 -4.30394,-10.9665 1.21181,-15.4973 8.36339,-23.8547 7.84016,-34.3996 -1.47756,-29.7414 9.00473,-41.8559 17.4425,-54.1016 8.43308,-12.2445 23.1803,11.5677 23.1803,11.5677z"/>
   <path id="_310038328" class="fil2" d="M659.469 949.112c17.6114,67.1008 30.3012,43.2933 50.2713,130.247 2.21929,9.66497 8.00434,14.6539 10.0063,15.274 13.461,4.16693 27.3319,-16.5307 27.3319,-16.5307 -0.0236221,-2.36575 -0.0732284,-4.79174 -0.166536,-7.27323 -6.35788,-57.913 -16.2579,-98.7662 -29.4839,-152.106 -19.8236,-79.9524 -72.7087,-6.71693 -57.9591,30.3886z"/>
   <path id="_310038256" class="fil2" d="M1647.82 1038.92c0,0 19.7634,47.7296 17.1851,109.647 -2.57481,61.9075 -30.0768,57.5445 -30.9319,84.1784 -0.861024,26.6421 9.44765,91.9524 5.15552,134.061 -4.29922,42.1075 -29.2158,207.102 -24.9201,231.157 4.29331,24.0626 15.3319,49.8426 -0.494882,55.0016 -15.8351,5.15197 -51.9272,3.43701 -52.7835,-11.1732 -0.862205,-14.6067 18.0425,-47.2618 18.0425,-86.7946 0,-39.5256 -8.59135,-180.453 -6.87166,-225.144 1.71732,-44.6823 4.29567,-87.9438 0,-114.867 -4.29449,-26.9162 -19.7693,-22.4622 -17.1839,-88.6808 0,0 41.2394,-59.1402 92.8028,-87.3851z"/>
   <path id="_310038088" class="fil8" d="M1639.67 1372.46c-4.93347,40.1032 -11.5595,124.485 -17.6776,174.551l-46.5166 0c-1.91811,-32.2736 -1.63228,-116.936 -3.33189,-174.551l67.526 0z"/>
   <path id="_310037704" class="fil2" d="M1446.68 1038.92c0,0 -19.7658,47.7296 -17.1898,109.647 2.58425,61.9075 30.0768,57.5445 30.939,84.1784 0.859843,26.6421 -9.45237,91.9524 -5.15788,134.061 4.29567,42.1075 29.2205,207.102 24.9201,231.157 -4.29213,24.0626 -15.3331,49.8426 0.499607,55.0016 15.8315,5.15197 51.9213,3.43701 52.7811,-11.1732 0.863386,-14.6067 -18.0484,-47.2618 -18.0484,-86.7946 0,-39.5256 8.59725,-180.453 6.8752,-225.144 -1.72087,-44.6823 -4.29331,-87.9438 0,-114.867 4.29803,-26.9162 19.7693,-22.4622 17.1874,-88.6808 0,0 -41.2441,-59.1402 -92.8064,-87.3851z"/>
   <path id="_310038016" class="fil8" d="M1455.66 1372.46c4.93347,40.1032 11.5595,124.485 17.6788,174.551l46.5166 0c1.91811,-32.2736 1.6311,-116.936 3.33071,-174.551l-67.526 0z"/>
   <path id="_310038208" class="fil9" d="M1522.97 640.271l45.6827 0c2.46732,15.2421 8.97993,32.4284 26.7437,42.4122 36.8185,-10.3807 37.4859,-8.61379 37.4847,-8.61379 -7.51654,-27.7335 2.90197,-124.986 2.90433,-125.01 -25.4008,-16.2862 -165.545,-13.7788 -179.949,0 0.00354331,0.0248032 10.4185,97.2768 2.90433,125.01 0.491339,0.498426 55.9241,17.4744 64.2296,-33.7985z"/>
   <path id="_310037944" class="fil4" d="M1587.36 733.88c11.1378,-20.6268 20.6669,-45.7855 17.7449,-75.8894 0,-0.0011811 -28.0807,-18.6898 -27.913,-54.3496 0,-0.0011811 -46.6583,5.14134 -61.4859,-1.66654 0.0011811,0 7.67717,48.9107 -20.739,56.0162 -3.78425,31.2803 3.72992,62.5146 21.9969,78.5764 13.3536,11.7449 60.1252,16.324 70.3961,-2.68701z"/>
   <path id="_310038184" class="fil4" d="M1625.41 523.357c0,0 5.0315,-10.7457 10.6311,-3.4689 5.60197,7.27796 4.50118,36.9425 -13.3193,36.9768 0.0011811,0 2.59961,-26.4579 2.68819,-33.5079z"/>
   <path id="_310037656" class="fil4" d="M1465.67 523.357c0,0 -5.03977,-10.7457 -10.6382,-3.4689 -5.60434,7.27796 -4.50709,36.9425 13.3181,36.9768 0,0 -2.60551,-26.4579 -2.67992,-33.5079z"/>
   <path id="_310037104" class="fil2" d="M1627.18 512.828c3.69685,-124.36 -81.2883,-115.351 -81.3154,-115.349 -0.0283465,-0.00236221 -85.0111,-9.01064 -81.3154,115.351 0.0011811,-0.00236221 -2.68701,42.8398 7.72914,57.854 10.415,15.0154 52.5827,52.363 73.5827,52.363 21.0047,-0.0011811 63.1737,-37.3477 73.5863,-52.363 10.4232,-15.0154 7.7315,-57.854 7.73268,-57.8563z"/>
   <path id="_310036840" class="fil9" d="M1466.25 524.557c0,0 5.72008,-24.8953 9.92245,-29.4236 0,0 106.134,20.2642 113.105,-48.5705 0,0 8.61261,35.2701 30.3555,52.4516 4.84489,3.82087 5.86063,25.9701 5.86063,25.9701 0.0011811,-0.0011811 5.72008,-11.8654 10.5543,-5.09646 0,-0.0011811 11.3303,-30.8327 -8.48386,-73.4823 -19.8036,-42.6579 -46.2437,-55.3619 -77.2713,-46.4138 0.0011811,0 -25.6961,-8.66221 -49.1044,6.84804 -23.4106,15.5091 -31.6158,32.0268 -38.8205,51.7595 -7.20237,19.7362 -9.08741,63.1583 -5.91851,59.9067 4.35473,-4.46929 9.79961,6.05197 9.80079,6.05079z"/>
   <path id="_310036792" class="fil10" d="M1438.89 1012.04c-39.2303,85.1942 -53.0788,246.721 -52.0737,369.733l162.118 0 162.111 0c-1.4126,-123.012 -15.2563,-284.538 -52.0678,-369.733l-220.088 0z"/>
   <g>
    <g>
     <path id="_310037440" class="fil2" d="M1240.6 1054.81c11.5512,-13.8295 30.8481,-30.013 40.5189,-44.0611 9.67205,-14.0504 10.9512,-20.0823 10.9512,-20.0823l22.5248 22.2626c0,0 -14.5772,13.5189 -18.854,28.3264 -4.27796,14.8016 -5.9941,23.2831 -18.6225,42.4264 -1.40433,2.12717 -2.73307,4.14449 -5.1626,6.51969 0,0 -3.46181,4.2567 -6.65906,10.3063 -2.86536,5.42481 -8.90788,13.2732 -13.4303,11.4047 -4.53544,-1.87087 -1.3441,-10.4882 2.34567,-15.998 4.37717,-6.53504 7.30276,-13.1362 7.30276,-13.1362 -0.0011811,0 2.92677,-5.52874 3.93544,-6.67678 -2.54764,2.67638 -10.4953,10.9311 -14.211,13.6169 -4.45512,3.22323 -9.51851,19.7185 -10.7551,22.9784 -1.22717,3.2563 2.82047,16.6559 -2.37874,18.9354 0.0011811,-0.0011811 -6.28111,0.7063 -9.17835,-5.07048 0.0011811,-0.0011811 -8.74725,-19.6122 -5.45315,-27.1382 0.0011811,0 -1.79646,-3.71221 -1.7563,-5.67993 0.0389764,-1.97599 1.6878,-7.39253 1.6878,-7.39253 0.0011811,0 -2.13898,-2.9941 -0.0141732,-7.52481 2.12244,-4.54134 5.64331,-10.1847 17.2087,-24.0166z"/>
     <path id="_310036912" class="fil11" d="M1236.94 1131.65l1.49764 -0.0850394c-0.603544,-0.543308 -2.42244,-1.39725 -4.78701,-9.01654 -2.79331,-9.01182 -2.29134,-16.2921 0.105118,-21.861 2.52166,-5.84882 7.14922,-20.4331 7.19646,-20.5807l-0.402756 -0.131102c-0.0425197,0.145276 -5.47087,14.4154 -7.96536,20.211 -2.50984,5.83347 -2.56536,13.2508 -0.170079,22.6725 1.71378,6.75237 3.37559,8.25591 4.52599,8.79095z"/>
     <path id="_310037128" class="fil11" d="M1223.03 1098.45l0.441733 0.980316c0.0496063,-0.145276 5.10119,-14.1343 7.83898,-20.9114 2.71772,-6.73229 4.4315,-9.48898 4.44803,-9.51379l-0.349607 -0.220866c-0.0744095,0.112205 -2.12008,2.96103 -4.88859,9.81497 -2.7567,6.82796 -7.44568,19.7091 -7.49056,19.8508z"/>
     <path id="_310036888" class="fil11" d="M1222.93 1085.42l0.473622 0.937796c0.0318898,-0.0814961 3.10748,-7.93583 5.20394,-11.9539l-0.252756 -0.135827c-2.12126,4.05709 -5.39056,11.0776 -5.42481,11.152z"/>
     <path id="_310037008" class="fil12" d="M1222.45 1083.01c-0.0366142,-1.15039 0.179528,-2.56418 0.938977,-4.18111 0.0165354,-0.0354331 0.0330709,-0.0696851 0.0496063,-0.105118 -0.0165354,0.0354331 -0.0330709,0.0696851 -0.0496063,0.105118 -0.755906,1.60984 -0.973229,3.02599 -0.938977,4.18229zm75.1312 -86.8949l-5.51339 -5.44725 5.51339 5.44725c0,0 -0.0011811,0.0011811 0,0z"/>
    </g>
    <path id="_310036720" class="fil10" d="M1319.4 1048.8l-62.4898 -33.8823c0,0 55.2674,-109.173 79.578,-153.079 70.5012,12.2528 65.3292,37.4528 29.7047,98.1981 -12.7618,21.7595 -30.6874,49.3926 -46.7929,88.7635z"/>
   </g>
   <path id="_310036768" class="fil10" d="M1415.73 685.452c-0.302362,0.138189 -0.603544,0.277559 -0.894095,0.420473 -23.8618,11.7543 -62.3221,145.792 -91.539,203.406l-0.0555119 0.111024 58.6264 33.7937 0.125197 -0.243307 0.308268 -0.598819c22.5969,-44.1331 59.3044,-110.704 67.865,-132.859l-7.43386 -57.8457 -27.0024 -46.1847z"/>
   <path id="_310036264" class="fil10" d="M1663.6 1030.17c-39.2339,-200.353 -51.7996,-131.045 24.2811,-340.76 -0.251575,-0.263386 -0.501969,-0.520867 -0.757087,-0.745276 -20.4189,-17.8725 -82.0123,-30.7559 -82.0123,-30.7559 -18.6945,40.2933 -45.9201,40.5922 -56.178,40.5969 -10.2567,-0.00590552 -39.7677,-4.74213 -53.9611,-40.5969 0.00236221,0 -60.776,12.274 -82.6796,29.4792 -0.270473,0.212599 -0.536221,0.425197 -0.796064,0.638977 77.4154,205.988 60.9674,150.993 21.3047,348.965l230.798 -6.82205z"/>
   <path id="_310036216" class="fil1" d="M1613.88 1579.51c0,0 -1.48583,19.865 2.39528,37.5603 4.07599,18.5752 3.60473,25.5414 -14.2536,28.0902 -17.8595,2.55118 -37.7067,-1.13268 -37.9902,-8.22402 -0.282284,-7.0819 13.311,-47.6729 13.702,-64.0749 0,0 -4.3252,5.08229 -5.15079,16.1398 -0.831497,11.0563 -10.8626,32.3079 -13.2449,54.554 -2.11299,19.7492 -0.912993,31.6063 14.7744,41.3469 10.6772,6.63308 25.1221,6.50197 38.4567,-3.20788 8.28072,-6.03071 13.9051,-14.4189 13.1658,-31.4327 -0.753544,-17.0055 -8.0504,-48.4595 -8.13544,-57.8185 -0.0791339,-9.35552 1.39016,-21.5858 -2.69882,-26.9705 0.0011811,0 -1.77284,9.32953 -1.02047,14.0374z"/>
   <path id="_310036576" class="fil1" d="M1480.07 1579.51c0,0 1.48347,19.865 -2.40355,37.5603 -4.07481,18.5752 -3.60355,25.5414 14.2606,28.0902 17.8547,2.55118 37.7032,-1.13268 37.9878,-8.22402 0.279921,-7.0819 -13.3146,-47.6729 -13.7091,-64.0749 0,0 4.33347,5.08229 5.15906,16.1398 0.827953,11.0563 10.8626,32.3079 13.2449,54.554 2.11299,19.7492 0.908268,31.6063 -14.7803,41.3469 -10.6736,6.63308 -25.1221,6.50197 -38.4508,-3.20788 -8.27835,-6.03071 -13.9063,-14.4189 -13.1646,-31.4327 0.748819,-17.0055 8.04686,-48.4595 8.12953,-57.8185 0.0838583,-9.35552 -1.3937,-21.5858 2.69882,-26.9705 0.0011811,0 1.77756,9.32953 1.02756,14.0374z"/>
   <path id="_310036168" class="fil10" d="M1595.69 675.735c-0.0259843,0.330709 -0.0484252,0.662599 -0.0637796,0.98504 -0.887009,18.9484 37.8697,101.166 67.6182,170.98 11.9658,28.0866 14.1047,61.2201 24.5232,76.5461l0.0708662 0.102756 65.6989 -45.0721c-7.41851,-39.3036 -31.4575,-151.608 -65.576,-189.656l-92.2713 -13.8862z"/>
   <g>
    <path id="_310036072" class="fil2" d="M1783.23 1092.71c-6.56575,-16.7811 -19.7291,-38.2512 -24.4418,-54.6426 -4.71378,-16.3937 -4.01221,-22.5189 -4.01221,-22.5189l-28.4268 13.963c0,0 9.53387,17.4461 8.89016,32.8453 -0.640158,15.3945 -1.70315,23.9823 4.19646,46.1433 0.656693,2.4626 1.27677,4.79764 2.82638,7.82127 0,0 1.93228,5.13544 3.04488,11.8878 0.99567,6.05315 4.23544,15.4134 9.11694,15.0756 4.89449,-0.334252 4.60158,-9.51851 2.85236,-15.9142 -2.07756,-7.58741 -2.7567,-14.7756 -2.7567,-14.7756 0,0.0011811 -1.02165,-6.17126 -1.61339,-7.58032 1.56732,3.34725 6.48426,13.6973 9.15473,17.4225 3.20315,4.47166 2.76969,21.7205 2.90788,25.2036 0.129921,3.47835 -7.96064,14.9008 -3.75355,18.7122 0,-0.0011811 5.73189,2.66339 10.3134,-1.89567 -0.0011811,-0.0011811 14.5193,-15.8221 13.7835,-24.0047 -0.0011811,0 2.88071,-2.9504 3.46772,-4.82953 0.590552,-1.88622 0.745276,-7.54607 0.745276,-7.54607 -0.0011811,0 2.97874,-2.15906 2.40118,-7.13032 -0.571654,-4.97953 -2.1189,-11.4496 -8.69646,-28.2366z"/>
    <path id="_310036480" class="fil11" d="M1762.31 1166.74l-1.39252 -0.5563c0.745276,-0.323622 2.74134,-0.5563 7.40079,-7.03111 5.50867,-7.65945 7.34292,-14.7225 6.83859,-20.765 -0.536221,-6.34607 -0.295276,-21.6449 -0.294095,-21.8008l0.424016 0.00472441c-0.00590552,0.151181 0.612993,15.4063 1.13976,21.6933 0.527953,6.32835 -1.77165,13.3807 -7.03347,21.554 -3.76772,5.85945 -5.82166,6.75945 -7.08308,6.90119z"/>
    <path id="_310036024" class="fil11" d="M1786.04 1139.66l-0.728741 0.790158c-0.0011811,-0.153543 -0.351969,-15.0225 -0.797245,-22.3193 -0.441733,-7.24607 -1.19173,-10.4043 -1.19882,-10.4327l0.401575 -0.0980316c0.034252,0.12874 1.07008,3.47953 1.52008,10.8579 0.447638,7.35119 0.805512,21.0543 0.80315,21.202z"/>
    <path id="_310036552" class="fil11" d="M1790.27 1127.34l-0.747638 0.73819c-0.00472441,-0.0874016 -0.42874,-8.51221 -1.14213,-12.9874l0.283465 -0.0484252c0.724016,4.52008 1.59685,12.2162 1.6063,12.2976z"/>
    <path id="_310036288" class="fil12" d="M1791.49 1125.21c0.400394,-1.07953 0.644882,-2.48858 0.437008,-4.2626 -0.00472441,-0.0389764 -0.00944883,-0.0767717 -0.0129921,-0.115748 0.00354331,0.0389764 0.00826772,0.0767717 0.0129921,0.115748 0.206693,1.76575 -0.0366142,3.17835 -0.437008,4.26378zm-43.6713 -106.246l6.95788 -3.41575 -6.95788 3.41575c0,0 0.0011811,0.0011811 0,0z"/>
   </g>
   <path id="_310036384" class="fil10" d="M1710.41 1062l70.0111 -12.2988c0,0 -18.2634,-128.959 -27.3827,-178.311 -80.0292,-30.1193 -88.6831,-9.32245 -58.8343,91.5851 7.15394,24.189 13.4268,56.5784 16.2059,99.0249z"/>
   <path id="_310035904" class="fil2" d="M815.707 1243.66c14.224,-6.3378 61.5249,-39.8634 82.9666,-52.7398l22.4469 37.3772c-8.67048,5.2004 -53.5276,23.7555 -82.5142,44.0658 -5.71772,4.0063 -9.1819,-1.42913 -9.86576,-0.487796l-6.72166 1.2 -6.31182 -29.4154z"/>
   <path id="_310035760" class="fil2" d="M767.327 1180.47c-0.846851,-3.05315 -24.5799,-33.9792 -42.6827,-34.6347 -19.7055,-6.41693 -24.0957,-3.43701 -20.8252,-0.0354331 3.27047,3.40394 -2.07992,0.246851 -1.98662,3.3437 0.0519685,1.79173 2.68465,3.42874 4.09607,4.00748 1.92284,0.790158 -1.41851,1.27205 -1.55315,2.75551 -0.132284,1.48583 1.50709,3.66024 4.63819,5.72953 2.74843,1.81772 2.0563,2.05276 1.03583,2.09055 -1.24488,0.0507874 -2.02914,2.37284 3.08977,6.4441 7.37953,5.87126 14.0469,6.15119 18.5103,10.7445 12.5917,12.9532 22.3028,13.3087 31.2284,14.6268 8.92205,1.31929 4.44922,-15.0721 4.44922,-15.0721z"/>
   <path id="_310035352" class="fil2" d="M797.156 1262.64c-28.8969,-29.6847 -16.1102,-22.5886 -47.5926,-70.0571 -3.32481,-5.0126 -4.54252,-9.05316 -4.16103,-10.265 2.57126,-8.15316 17.6847,-7.92166 17.6847,-7.92166 1.17165,0.829134 2.36457,1.69134 3.56929,2.59488 26.6858,23.1732 43.6406,42.2209 65.6741,67.2402 33.0248,37.5012 -21.7642,38.5807 -35.1744,18.4087z"/>
   <path id="_310035376" class="fil2" d="M1169.91 1243.66c-14.2228,-6.3378 -61.5237,-39.8634 -82.9654,-52.7398l-22.4469 37.3772c8.67048,5.2004 53.5264,23.7555 82.5142,44.0658 5.71654,4.0063 9.18072,-1.42913 9.86457,-0.487796l6.72284 1.2 6.31063 -29.4154z"/>
   <path id="_310035736" class="fil2" d="M1190.84 1165.39c-0.120473,-3.16654 13.089,-39.8433 30.1358,-45.9697 16.8225,-12.1028 21.9106,-10.5992 19.8295,-6.36378 -2.08229,4.23662 2.0563,-0.396851 2.90788,2.58071 0.494882,1.72323 -1.51536,4.08307 -2.68347,5.06339 -1.59213,1.33701 1.7374,0.780709 2.31732,2.15315 0.577559,1.37599 -0.323622,3.94488 -2.67756,6.86812 -2.06575,2.56772 -1.33583,2.58189 -0.351969,2.30669 1.20236,-0.329528 2.65512,1.6441 -0.983859,7.07835 -5.24646,7.83544 -11.5122,10.1303 -14.3693,15.8622 -8.05867,16.1681 -17.2028,19.4587 -25.304,23.4272 -8.09883,3.96851 -8.82048,-13.0063 -8.82048,-13.0063z"/>
   <path id="_310035256" class="fil2" d="M1187.4 1252.74c18.5067,-37.0642 8.4815,-26.4166 24.0461,-81.2091 1.64291,-5.78622 1.57677,-10.0051 0.843308,-11.0445 -4.92756,-6.98504 -19.2543,-2.17087 -19.2543,-2.17087 -0.864568,1.14567 -1.73858,2.33032 -2.6126,3.55748 -18.3791,30.1878 -28.741,53.4874 -42.1276,84.0201 -20.0646,45.7654 32.4614,30.1406 39.1051,6.84686z"/>
   <polygon id="_310035640" class="fil13" points="1020.22,1152.93 958.942,1152.93 958.942,1168.81 913.342,1198.27 994.471,1250.23 1065.81,1198.27 1020.22,1169.77 "/>
   <path id="_310035616" class="fil14" d="M949.733 1603.91c1.86732,0 7.43386,50.0481 7.82481,53.7071 1.61929,15.1264 0.69567,24.2079 -11.3197,31.6677 -8.17442,5.07993 -19.2414,4.97953 -29.4508,-2.45669 -6.34016,-4.61929 -10.65,-11.0433 -10.0819,-24.0744 0.84567,-19.2024 4.30985,-35.6303 6.39686,-56.4827l36.6307 -2.36103z"/>
   <path id="_310035856" class="fil2" d="M953.098 1625.64c-13.0335,12.0992 -27.2764,13.3099 -42.8422,2.62087l-0.753544 -159.194 54.8032 0 -11.2075 156.573z"/>
   <path id="_310034944" class="fil14" d="M1031.5 1603.91c-1.86732,0 -7.43268,50.0481 -7.82481,53.7071 -1.61929,15.1264 -0.69567,24.2079 11.3197,31.6677 8.1756,5.07993 19.2414,4.97953 29.4508,-2.45669 6.34016,-4.61929 10.6512,-11.0433 10.0831,-24.0744 -0.846851,-19.2024 -4.31103,-35.6303 -6.39686,-56.4827l-36.6319 -2.36103z"/>
   <path id="_310035040" class="fil2" d="M1028.14 1625.64c13.0335,12.0992 27.2764,13.3099 42.8422,2.62087l0.754725 -159.194 -54.8044 0 11.2075 156.573z"/>
   <path id="_310034728" class="fil2" d="M1080.28 1083.12c-4.9252,49.3524 -48.9178,85.3595 -98.2737,80.4426 -49.35,-4.92166 -85.3654,-48.9225 -80.439,-98.2737 4.92993,-49.3524 48.9201,-85.3619 98.2702,-80.4367 49.3512,4.92284 85.3666,48.9189 80.4426,98.2678z"/>
   <path id="_310034824" class="fil15" d="M917.625 1065.14c-0.0507874,9.8445 -8.06812,17.7862 -17.9102,17.7319 -9.84568,-0.046063 -17.7839,-8.06457 -17.7366,-17.9043 0.0507874,-9.84686 8.07048,-17.7862 17.9138,-17.7402 9.84213,0.0472441 17.7851,8.06812 17.7331,17.9126z"/>
   <path id="_310034464" class="fil15" d="M1099.88 1083.44c-0.0507874,9.84331 -8.07048,17.7862 -17.9126,17.7425 -9.84568,-0.056693 -17.7851,-8.07757 -17.739,-17.9173 0.0531496,-9.84095 8.07284,-17.7827 17.9162,-17.7343 9.84213,0.0519685 17.7839,8.07166 17.7354,17.9091z"/>
   <path id="_310034752" class="fil16" d="M974.002 1028.83c6.5752,9.24568 42.6957,38.8996 46.4752,32.0162 0.0389764,-0.0507874 -2.86418,-19.4138 -2.65866,-23.1898 12.9697,17.5004 30.8268,31.0063 51.5079,38.8571 0.184252,0.068504 0.368504,0.132284 0.553937,0.191339l-0.0200788 0.0602363 6.313 2.25709 0 0.575197c3.01063,-8.74371 4.6441,-18.1028 4.6441,-27.8327 0,-48.3319 -40.2449,-87.5115 -89.8914,-87.5115 -49.6465,0 -89.8914,52.5059 -89.8914,87.5115 0,10.9217 1.42087,19.7717 3.78307,27.2445 30.2469,-12.5823 48.9449,-17.9977 69.1843,-50.1792z"/>
   <rect id="_310034992" class="fil6" x="909.473" y="1349.61" width="162.715" height="15.6106"/>
   <rect id="_310034632" class="fil7" x="979.649" y="1348.67" width="22.3618" height="17.4874"/>
   <polygon id="_310033696" class="fil1" points="1078.97,1495.76 1071.83,1365.22 1001.96,1363.78 1002.01,1363.32 990.654,1363.55 979.295,1363.32 979.345,1363.78 909.474,1365.22 902.333,1495.76 971.774,1495.76 990.654,1430 1009.54,1495.76 "/>
   <path id="_310034296" class="fil17" d="M903.627 1181.06c12.1417,-10.0618 42.9485,49.5804 40.1268,51.5516 -3.05079,-2.82047 -17.6894,7.73623 -52.2851,17.4555l-22.024 -44.8122c11.4331,-7.32048 31.1268,-21.5043 34.1823,-24.1949z"/>
   <path id="_310034176" class="fil18" d="M885.054 1252.55c0.820867,2.07756 3.17008,3.09567 5.24764,2.2748 2.07756,-0.819686 3.09685,-3.17008 2.2748,-5.24646l-17.4768 -44.152c-0.820867,-2.07638 -3.17126,-3.09567 -5.24764,-2.2748 -2.07638,0.820867 -3.09567,3.17126 -2.27599,5.24764l17.478 44.1508z"/>
   <path id="_310034080" class="fil17" d="M1081.99 1181.06c-12.1417,-10.0618 -42.9496,49.5804 -40.1268,51.5516 3.04961,-2.82047 17.6894,7.73623 52.2851,17.4555l22.0229 -44.8122c-11.4319,-7.32048 -31.1268,-21.5043 -34.1811,-24.1949z"/>
   <path id="_310034104" class="fil18" d="M1100.56 1252.55c-0.819686,2.07756 -3.17008,3.09567 -5.24764,2.2748 -2.07638,-0.819686 -3.09567,-3.17008 -2.27362,-5.24646l17.4768 -44.152c0.820867,-2.07638 3.17126,-3.09567 5.24764,-2.2748 2.07638,0.820867 3.09567,3.17126 2.2748,5.24764l-17.478 44.1508z"/>
   <path id="_310033840" class="fil19" d="M1075.98 1349.48c-3.13937,-11.6339 -0.536221,-89.1993 -2.57126,-109.159 -6.55867,-18.2091 -2.41418,-43.3217 8.73544,-59.2619 -8.70119,-5.53819 -26.1473,-11.6268 -42.6473,-13.4858 -9.21142,11.6917 -28.2319,16.0914 -46.6878,15.2551 -18.4559,0.836221 -37.4764,-3.56339 -46.6878,-15.2551 -16.5,1.85906 -33.9461,7.94764 -42.6473,13.4858 11.1496,15.9402 15.2941,41.0528 8.73544,59.2619 -2.03504,19.9595 0.568111,97.5249 -2.57126,109.159l83.1709 0 83.1709 0z"/>
  </g>
 </g>
 <rect class="fil20" width="2048" height="2048"/>
</svg>
